<?xml version="1.0" standalone="no"?>
<!DOCTYPE svg PUBLIC "-//W3C//DTD SVG 20010904//EN"
 "http://www.w3.org/TR/2001/REC-SVG-20010904/DTD/svg10.dtd">
<svg version="1.0" xmlns="http://www.w3.org/2000/svg"
 width="320.000000pt" height="320.000000pt" viewBox="0 0 320.000000 320.000000"
 preserveAspectRatio="xMidYMid meet">
<metadata>
Created by potrace 1.11, written by Peter Selinger 2001-2013
</metadata>
<g transform="translate(0.000000,320.000000) scale(0.100000,-0.100000)"
fill="#000000" stroke="none">
<path d="M1456 2938 c-447 -39 -855 -324 -1064 -743 -92 -185 -134 -369 -134
-585 0 -80 5 -176 11 -215 61 -370 272 -701 584 -914 121 -82 318 -162 487
-197 107 -23 380 -25 490 -5 182 33 426 136 558 237 4 3 -346 348 -357 352 -4
1 -34 -11 -67 -27 -322 -159 -713 -91 -973 170 -143 144 -226 332 -238 541
-14 252 67 467 242 644 130 131 271 207 443 240 191 37 448 -8 586 -102 l39
-27 174 176 c95 97 173 180 173 185 0 12 -119 87 -217 138 -217 110 -469 155
-737 132z"/>
<path d="M2549 2118 l-176 -181 19 -51 c67 -174 64 -392 -8 -585 l-27 -73 179
-179 179 -179 17 22 c10 13 40 68 67 123 86 174 128 345 135 540 6 175 -10
289 -65 465 -30 95 -115 272 -134 277 -5 1 -89 -79 -186 -179z"/>
</g>
</svg>
